<svg version="1.1" id="Layer_1" xmlns="http://www.w3.org/2000/svg" xmlns:xlink="http://www.w3.org/1999/xlink" x="0px" y="0px"
	 width="100%" viewBox="0 0 3793 1024" enable-background="new 0 0 3793 1024" xml:space="preserve">
<path fill="#FFFFFF" opacity="1.000000" stroke="none" 
	d="
M2723.000000,1025.000000 
	C1815.333374,1025.000000 908.166687,1025.000000 1.000000,1025.000000 
	C1.000000,683.666687 1.000000,342.333344 1.000000,1.000000 
	C1265.333374,1.000000 2529.666748,1.000000 3794.000000,1.000000 
	C3794.000000,342.333344 3794.000000,683.666687 3794.000000,1025.000000 
	C3437.166748,1025.000000 3080.333252,1025.000000 2723.000000,1025.000000 
M3373.500000,725.000000 
	C3383.666260,725.000000 3393.832275,725.004517 3403.998535,724.998352 
	C3410.475342,724.994446 3412.997559,722.529968 3412.997559,716.178650 
	C3413.000488,553.685730 3413.000977,391.192810 3412.997559,228.699905 
	C3412.997559,222.621613 3410.405273,220.004547 3404.376953,220.003342 
	C3370.211914,219.996460 3336.046631,219.997604 3301.881592,220.002121 
	C3295.467529,220.002960 3293.002197,222.485870 3293.001709,228.941330 
	C3292.998047,269.939545 3292.898193,310.938232 3293.088867,351.935547 
	C3293.125488,359.807892 3294.374023,367.670349 3294.945801,375.545868 
	C3295.353271,381.155640 3295.564209,386.779663 3295.847412,392.113983 
	C3289.977539,386.657104 3284.423584,381.054016 3278.415527,375.989624 
	C3258.454590,359.164032 3234.811035,352.183258 3209.196777,351.092133 
	C3202.622314,350.812073 3196.000244,351.686310 3189.398438,351.995667 
	C3175.348633,352.654022 3161.999512,356.226776 3149.247314,361.982239 
	C3133.371338,369.147522 3119.784668,379.297241 3107.978516,392.270752 
	C3096.434814,404.955780 3087.701172,419.259552 3081.189941,434.849091 
	C3070.239502,461.067108 3065.382812,488.855896 3064.245361,517.012390 
	C3063.044434,546.729126 3063.088623,576.565491 3069.016113,605.982239 
	C3072.437500,622.960327 3077.194336,639.524902 3084.654541,655.222656 
	C3094.044678,674.980774 3107.140381,691.808105 3124.121826,705.667480 
	C3142.575928,720.728455 3163.885254,729.024170 3187.340576,730.722900 
	C3199.758057,731.622192 3212.490479,730.487732 3224.888184,728.831848 
	C3246.364990,725.963501 3265.186035,716.744080 3280.805420,701.591492 
	C3287.409180,695.185059 3293.453369,688.201843 3299.717285,681.518005 
	C3306.397217,694.808716 3313.255371,708.238281 3319.859375,721.792053 
	C3321.054443,724.245056 3322.304932,725.088257 3325.002441,725.065491 
	C3340.834229,724.932190 3356.667236,725.000000 3373.500000,725.000000 
M1796.500000,220.000000 
	C1790.667480,220.000000 1784.835083,219.995621 1779.002563,220.001175 
	C1772.533081,220.007339 1770.002686,222.472122 1770.002075,228.802505 
	C1769.997803,269.798737 1769.898560,310.795441 1770.088501,351.790802 
	C1770.124878,359.657867 1771.363159,367.515533 1771.940796,375.385284 
	C1772.356567,381.048340 1772.596069,386.724274 1772.902832,392.191345 
	C1767.099121,386.790527 1761.562622,381.219604 1755.593018,376.159637 
	C1735.427734,359.067291 1711.509399,352.084534 1685.584717,351.086548 
	C1679.175903,350.839813 1672.683838,351.319641 1666.305298,352.088806 
	C1658.559692,353.022797 1650.737305,354.030304 1643.222534,356.035156 
	C1620.218750,362.172272 1601.036011,374.472626 1585.059204,392.257843 
	C1572.078491,406.707947 1562.778809,423.074036 1555.895264,441.086426 
	C1546.580811,465.459778 1542.468628,490.946106 1541.264526,516.707520 
	C1540.036377,542.982727 1539.668579,569.488647 1544.262573,595.525635 
	C1546.988647,610.976196 1551.246582,626.269775 1556.142334,641.198975 
	C1564.500122,666.686279 1579.666626,687.715027 1600.327515,704.962585 
	C1618.632202,720.243225 1639.843872,728.511292 1663.135376,730.737305 
	C1678.192505,732.176453 1693.547607,731.714050 1708.448853,727.951294 
	C1728.306030,722.937195 1746.164185,714.183411 1760.420288,699.057678 
	C1765.904907,693.238464 1771.262329,687.299377 1776.668701,681.412415 
	C1783.422119,694.850647 1790.260376,708.247559 1796.850586,721.765381 
	C1798.031860,724.188721 1799.228027,725.078857 1801.949829,725.067444 
	C1828.613525,724.955566 1855.278076,725.008789 1881.942261,724.992554 
	C1887.227905,724.989319 1889.994751,722.148315 1889.994873,716.752625 
	C1890.001099,553.934204 1890.001099,391.115845 1889.995117,228.297440 
	C1889.994995,222.668167 1887.254028,220.005402 1881.492310,220.003723 
	C1853.494873,219.995544 1825.497437,220.000015 1796.500000,220.000000 
M2674.536133,640.961975 
	C2676.724365,635.522156 2678.950928,630.097534 2681.093750,624.639832 
	C2690.547363,600.559448 2693.893066,575.257141 2694.784668,549.701599 
	C2695.295898,535.043457 2694.407227,520.225525 2692.777344,505.632721 
	C2690.877686,488.625854 2686.867188,471.969208 2680.521240,455.927460 
	C2672.728027,436.226135 2661.880615,418.466034 2647.436523,403.013397 
	C2633.271729,387.859375 2616.522949,376.390747 2597.584473,367.708740 
	C2574.111572,356.948029 2549.389404,351.986420 2523.936035,351.262573 
	C2508.678955,350.828644 2493.295166,352.496002 2478.062500,354.108917 
	C2457.123779,356.326080 2437.464355,362.950531 2418.680908,372.594482 
	C2397.282471,383.580902 2379.786865,398.926361 2366.251709,418.570953 
	C2345.044922,449.350586 2335.927979,484.287170 2334.258057,521.079590 
	C2333.435303,539.209351 2334.469238,557.549194 2336.285156,575.631104 
	C2337.610840,588.833313 2340.576416,602.091370 2344.612549,614.750061 
	C2350.938232,634.589294 2360.587646,652.857422 2373.590332,669.443115 
	C2386.930908,686.459778 2403.141846,699.701904 2421.938721,709.947266 
	C2445.427490,722.750000 2470.899414,729.224792 2497.365479,730.759277 
	C2515.634277,731.818542 2533.987793,731.371155 2552.268311,728.226074 
	C2574.577148,724.387878 2595.595459,717.551392 2615.073486,705.996765 
	C2641.246582,690.470337 2660.687256,668.799072 2674.536133,640.961975 
M1165.509033,669.006714 
	C1172.380615,676.200012 1178.742676,683.983765 1186.239014,690.453125 
	C1198.532349,701.062378 1212.781616,708.705688 1227.767578,714.983154 
	C1251.218140,724.806274 1275.832153,729.619446 1301.027100,730.797424 
	C1317.071533,731.547546 1333.255127,730.984802 1349.289429,729.817017 
	C1365.249268,728.654602 1381.234863,726.726501 1396.965088,723.815613 
	C1416.382080,720.222595 1434.706055,713.056152 1451.999756,703.341492 
	C1451.999756,676.151794 1452.025513,649.162781 1451.975830,622.173889 
	C1451.966919,617.337830 1447.311279,614.569946 1442.953125,616.528137 
	C1438.802734,618.393066 1434.589844,620.118713 1430.405640,621.908508 
	C1399.667114,635.056580 1367.416138,641.133850 1334.147705,641.868835 
	C1325.308960,642.064026 1316.266846,641.485229 1307.625000,639.741333 
	C1299.275146,638.056152 1290.815674,635.371033 1283.302612,631.417786 
	C1269.347412,624.074646 1259.509644,612.380127 1254.034302,597.536316 
	C1251.440552,590.504517 1250.086182,583.015564 1247.977295,575.000000 
	C1251.416260,575.000000 1253.381104,575.000000 1255.345947,575.000000 
	C1325.661865,575.000000 1395.977783,575.001465 1466.293701,574.997314 
	C1472.328979,574.997009 1473.989868,573.375732 1473.996094,567.473877 
	C1474.008911,555.310242 1474.014160,543.146606 1473.996826,530.982971 
	C1473.970947,512.812439 1474.572388,494.633179 1471.050049,476.620972 
	C1466.535645,453.536133 1459.054565,431.815735 1445.232910,412.398651 
	C1432.580688,394.624542 1416.738037,380.832245 1397.465454,370.834198 
	C1371.399780,357.312134 1343.187866,352.518005 1314.307251,351.114594 
	C1297.170166,350.281830 1280.116089,351.901306 1263.154541,354.904663 
	C1238.205200,359.322388 1215.234009,368.421844 1194.683594,383.149475 
	C1176.387085,396.261932 1162.364746,413.260773 1151.478149,432.960907 
	C1136.386841,460.269684 1129.828003,490.006439 1128.281982,520.644409 
	C1126.886963,548.288269 1127.075439,576.065430 1133.934937,603.329102 
	C1139.938477,627.191223 1149.482056,649.230286 1165.509033,669.006714 
M908.241638,641.012085 
	C861.566589,640.383789 836.779907,606.533508 836.563599,575.000000 
	C838.535278,575.000000 840.508545,575.000000 842.481812,575.000000 
	C912.643494,575.000000 982.805115,575.000977 1052.966797,574.998474 
	C1059.583984,574.998291 1060.996460,573.550720 1060.999023,566.798462 
	C1061.002930,556.799194 1061.072266,546.799255 1060.984741,536.800720 
	C1060.809692,516.807739 1061.918579,496.786194 1058.077881,476.924866 
	C1053.575928,453.644470 1046.032227,431.785675 1032.140137,412.222626 
	C1019.696899,394.699646 1004.070740,380.981689 985.173706,371.110046 
	C958.890198,357.379913 930.328186,352.293213 901.074402,351.188049 
	C888.754822,350.722626 876.334412,352.049255 864.000671,353.060211 
	C848.177856,354.357239 832.949463,358.214661 818.041077,363.849670 
	C788.457581,375.031616 764.621338,393.255920 746.830261,419.459625 
	C736.199646,435.116821 728.427795,452.067719 723.407349,470.246948 
	C718.337402,488.605652 715.425110,507.383026 715.115417,526.414856 
	C714.872620,541.336182 715.362244,556.289734 716.117188,571.199097 
	C716.546143,579.670959 717.546570,588.218079 719.367249,596.494263 
	C723.683838,616.116882 730.131409,634.960938 740.621826,652.354797 
	C749.427979,666.955994 760.682495,679.405090 773.314819,690.505432 
	C785.508972,701.220764 799.869019,708.731018 814.860962,715.012512 
	C838.164307,724.776306 862.622009,729.552185 887.641357,730.788879 
	C903.683594,731.581909 919.848816,730.742126 935.917786,729.873413 
	C949.002502,729.166016 962.150024,728.048645 975.049072,725.830505 
	C996.646301,722.116699 1017.287048,715.097595 1036.650513,704.671570 
	C1037.766602,704.070679 1038.895386,702.263306 1038.901489,701.011902 
	C1039.031006,674.681091 1039.027710,648.349426 1038.973022,622.018066 
	C1038.963623,617.502380 1034.266968,614.726013 1030.204468,616.282349 
	C1015.807617,621.797546 1001.616394,628.095276 986.833862,632.285156 
	C973.424927,636.085754 959.377991,637.722656 945.549805,639.920410 
	C938.427429,641.052429 931.180054,641.604675 923.968140,641.895508 
	C919.055847,642.093628 914.106995,641.384949 908.241638,641.012085 
M444.055420,360.445679 
	C426.231079,366.189453 409.384583,373.988800 395.231750,386.408051 
	C375.152069,404.028198 365.944946,426.918915 365.086426,453.288666 
	C364.850586,460.532990 365.602112,467.815186 366.013672,475.073578 
	C366.667084,486.597015 369.481964,497.636108 374.538116,507.969757 
	C382.816956,524.889954 395.220581,538.339600 411.327240,547.931030 
	C424.599884,555.834778 438.191742,563.343079 452.185883,569.858826 
	C469.413605,577.880127 487.301849,584.470215 504.715179,592.110596 
	C514.257324,596.297424 523.974426,600.379395 531.567322,608.019165 
	C539.652832,616.154602 538.590393,629.699097 527.531311,633.896179 
	C519.878967,636.800293 511.673492,639.084656 503.562714,639.730103 
	C493.557007,640.526306 483.302338,640.066711 473.318878,638.829468 
	C458.454102,636.987183 443.620819,634.507507 428.978363,631.351562 
	C410.688110,627.409485 393.008667,621.338257 375.962860,613.505493 
	C370.223267,610.868103 366.001709,613.839600 366.001068,620.241760 
	C365.998474,646.568542 366.000000,672.895325 366.000000,699.222107 
	C366.000000,709.697998 366.135895,709.343933 375.955292,713.113525 
	C406.210419,724.728027 437.826508,729.519531 469.880646,730.752441 
	C493.478729,731.660095 517.178162,731.940247 540.751465,728.157227 
	C559.910767,725.082581 578.303345,720.045044 595.374084,710.830994 
	C608.206360,703.904785 619.341064,694.804382 628.409668,683.220642 
	C637.308228,671.854248 643.489380,659.074768 646.686829,645.198853 
	C649.134277,634.577454 650.452698,623.528870 650.743958,612.629395 
	C650.986694,603.545349 649.148926,594.383789 647.982056,585.288696 
	C645.702576,567.522400 637.479919,552.507080 625.757751,539.340637 
	C615.603271,527.935120 603.319519,518.918945 589.640564,512.490234 
	C567.419312,502.046783 544.565247,492.958984 522.166260,482.881104 
	C509.892883,477.358978 497.382843,471.945312 486.133606,464.692657 
	C476.599976,458.546173 476.675354,447.980743 484.817200,443.381226 
	C490.979645,439.899902 498.511078,437.920807 505.622345,437.235779 
	C519.600342,435.889191 533.507019,437.848450 547.228699,440.975891 
	C566.608704,445.392944 585.465576,451.408997 603.669495,459.357574 
	C611.678101,462.854523 614.550171,462.232941 617.806396,454.536102 
	C627.931885,430.601654 637.951355,406.622375 648.142822,382.348694 
	C646.344482,381.346588 644.750061,380.148407 642.956482,379.507111 
	C627.056824,373.821838 611.188904,368.034912 595.181030,362.667725 
	C572.690918,355.127075 549.299622,352.345734 525.780396,351.169342 
	C513.398804,350.549988 500.917450,351.431091 488.506500,352.102936 
	C482.171631,352.445862 475.852081,353.606049 469.598480,354.783905 
	C461.292023,356.348480 453.056702,358.290985 444.055420,360.445679 
M2119.386719,729.002258 
	C2124.420410,729.666565 2129.447021,730.834351 2134.489258,730.907227 
	C2155.337646,731.208313 2176.254150,731.806946 2196.867432,727.879883 
	C2220.783447,723.323608 2243.374268,715.147644 2264.090088,702.080872 
	C2266.197510,700.751587 2267.057129,699.661133 2267.050293,697.212341 
	C2266.971680,668.713318 2267.016602,640.214111 2266.985596,611.714905 
	C2266.979736,606.162109 2262.056885,603.354065 2257.070068,605.996948 
	C2255.339111,606.914307 2253.729248,608.059814 2252.002686,608.986694 
	C2234.218506,618.534058 2215.527588,625.694397 2195.706299,629.601013 
	C2180.320557,632.633423 2164.850830,634.304810 2149.096436,632.079102 
	C2127.055420,628.965271 2112.448242,616.377502 2103.449463,596.781433 
	C2096.652100,581.978943 2094.885986,565.955566 2094.120850,549.912231 
	C2093.751953,542.177979 2094.730957,534.384949 2094.979492,526.614624 
	C2095.412109,513.088257 2097.915771,500.009216 2102.998047,487.433563 
	C2112.748291,463.308258 2130.566650,450.311371 2154.818359,448.146667 
	C2170.836670,446.716858 2186.653564,449.356537 2201.890869,454.509399 
	C2213.608154,458.471954 2225.099365,463.097870 2236.741943,467.287689 
	C2241.510010,469.003448 2245.267822,466.981781 2247.037598,462.217072 
	C2248.342285,458.704803 2249.686523,455.206451 2251.064697,451.722260 
	C2260.623779,427.550354 2270.196533,403.383850 2280.273926,377.929413 
	C2266.388916,372.759705 2252.933350,367.455719 2239.277588,362.732147 
	C2216.806152,354.959412 2193.390625,352.154694 2169.806641,351.113159 
	C2152.151855,350.333496 2134.578125,351.878326 2117.105469,354.903656 
	C2099.977539,357.869293 2083.475830,362.602142 2067.624023,369.734039 
	C2045.465332,379.703430 2026.853149,394.171295 2011.475586,412.970856 
	C1998.800537,428.466217 1989.132446,445.677185 1983.286011,464.709198 
	C1975.722656,489.329956 1972.177490,514.661865 1972.991943,540.508179 
	C1973.378540,552.774048 1972.792358,565.149963 1974.258545,577.281189 
	C1975.876587,590.668823 1978.658936,604.015930 1982.150635,617.054993 
	C1988.550903,640.956543 2000.343506,662.134827 2017.015991,680.513184 
	C2032.202271,697.253174 2050.661377,709.154419 2071.650391,717.228333 
	C2086.770264,723.044495 2102.291260,727.370605 2119.386719,729.002258 
M2899.889160,517.365906 
	C2903.006592,501.435089 2911.072021,488.573669 2924.148438,478.999603 
	C2938.246826,468.677338 2954.683594,464.665802 2971.624268,464.280212 
	C2985.209717,463.970947 2998.879150,465.893524 3012.455566,467.346558 
	C3018.294922,467.971558 3021.610840,466.066498 3022.024170,460.394257 
	C3022.598145,452.523865 3023.288574,444.660889 3024.025146,436.803741 
	C3025.312500,423.067047 3026.640137,409.333862 3028.020508,395.606232 
	C3028.495361,390.882111 3029.291016,386.189575 3029.739502,381.463623 
	C3030.527832,373.154785 3031.162354,364.831390 3031.910645,355.926208 
	C3003.615723,349.695709 2975.683838,347.756256 2948.259766,359.061249 
	C2920.963623,370.313568 2900.356445,389.317841 2885.207764,415.073975 
	C2885.083496,413.654694 2885.145996,412.790039 2884.918945,412.009857 
	C2880.189453,395.765381 2875.235596,379.582520 2870.797852,363.259338 
	C2869.598145,358.845917 2867.672852,357.848999 2863.343018,357.887238 
	C2837.517334,358.115204 2811.688721,357.996552 2785.861084,358.002441 
	C2779.496338,358.003876 2778.002441,359.502502 2778.002441,365.887207 
	C2777.999512,482.695007 2777.998779,599.502808 2778.002441,716.310608 
	C2778.002686,722.379761 2780.599609,724.995483 2786.630859,724.996704 
	C2820.456787,725.003540 2854.282715,725.002380 2888.108643,724.997925 
	C2894.531982,724.997070 2896.997803,722.520264 2896.998047,716.071106 
	C2897.001465,660.916504 2896.872070,605.761353 2897.109375,550.607788 
	C2897.156006,539.766235 2898.613525,528.930786 2899.889160,517.365906 
z"/>
<path fill="#6FAB49" opacity="1.000000" stroke="none" 
	d="
M3373.000000,725.000000 
	C3356.667236,725.000000 3340.834229,724.932190 3325.002441,725.065491 
	C3322.304932,725.088257 3321.054443,724.245056 3319.859375,721.792053 
	C3313.255371,708.238281 3306.397217,694.808716 3299.717285,681.518005 
	C3293.453369,688.201843 3287.409180,695.185059 3280.805420,701.591492 
	C3265.186035,716.744080 3246.364990,725.963501 3224.888184,728.831848 
	C3212.490479,730.487732 3199.758057,731.622192 3187.340576,730.722900 
	C3163.885254,729.024170 3142.575928,720.728455 3124.121826,705.667480 
	C3107.140381,691.808105 3094.044678,674.980774 3084.654541,655.222656 
	C3077.194336,639.524902 3072.437500,622.960327 3069.016113,605.982239 
	C3063.088623,576.565491 3063.044434,546.729126 3064.245361,517.012390 
	C3065.382812,488.855896 3070.239502,461.067108 3081.189941,434.849091 
	C3087.701172,419.259552 3096.434814,404.955780 3107.978516,392.270752 
	C3119.784668,379.297241 3133.371338,369.147522 3149.247314,361.982239 
	C3161.999512,356.226776 3175.348633,352.654022 3189.398438,351.995667 
	C3196.000244,351.686310 3202.622314,350.812073 3209.196777,351.092133 
	C3234.811035,352.183258 3258.454590,359.164032 3278.415527,375.989624 
	C3284.423584,381.054016 3289.977539,386.657104 3295.847412,392.113983 
	C3295.564209,386.779663 3295.353271,381.155640 3294.945801,375.545868 
	C3294.374023,367.670349 3293.125488,359.807892 3293.088867,351.935547 
	C3292.898193,310.938232 3292.998047,269.939545 3293.001709,228.941330 
	C3293.002197,222.485870 3295.467529,220.002960 3301.881592,220.002121 
	C3336.046631,219.997604 3370.211914,219.996460 3404.376953,220.003342 
	C3410.405273,220.004547 3412.997559,222.621613 3412.997559,228.699905 
	C3413.000977,391.192810 3413.000488,553.685730 3412.997559,716.178650 
	C3412.997559,722.529968 3410.475342,724.994446 3403.998535,724.998352 
	C3393.832275,725.004517 3383.666260,725.000000 3373.000000,725.000000 
M3215.007812,626.539490 
	C3215.668701,627.025208 3216.279541,627.606628 3216.997803,627.982483 
	C3231.153809,635.386230 3245.930908,635.206543 3260.980713,631.520813 
	C3271.127197,629.035950 3279.843750,624.416809 3286.116943,615.642822 
	C3296.963379,600.472168 3299.803711,582.842957 3300.761963,565.053650 
	C3301.581055,549.852295 3300.337646,534.539673 3300.000977,519.276367 
	C3299.705566,505.882324 3296.504150,493.030457 3291.735352,480.668335 
	C3287.103516,468.660706 3279.323486,459.060638 3266.778564,454.395386 
	C3258.095459,451.166382 3249.100342,449.772827 3239.764893,449.932037 
	C3223.496582,450.209625 3211.320312,457.615631 3201.895264,470.409454 
	C3189.940186,486.637878 3186.711670,505.609070 3185.133789,524.933899 
	C3184.360596,534.404175 3184.483643,544.025208 3185.135498,553.513794 
	C3185.886230,564.436707 3186.881592,575.458923 3189.188477,586.131653 
	C3192.684814,602.309082 3199.894287,616.637085 3215.007812,626.539490 
z"/>
<path fill="#F04E36" opacity="1.000000" stroke="none" 
	d="
M1797.000000,220.000000 
	C1825.497437,220.000015 1853.494873,219.995544 1881.492310,220.003723 
	C1887.254028,220.005402 1889.994995,222.668167 1889.995117,228.297440 
	C1890.001099,391.115845 1890.001099,553.934204 1889.994873,716.752625 
	C1889.994751,722.148315 1887.227905,724.989319 1881.942261,724.992554 
	C1855.278076,725.008789 1828.613525,724.955566 1801.949829,725.067444 
	C1799.228027,725.078857 1798.031860,724.188721 1796.850586,721.765381 
	C1790.260376,708.247559 1783.422119,694.850647 1776.673218,681.413696 
	C1771.262329,687.299377 1765.904907,693.238464 1760.420288,699.057678 
	C1746.164185,714.183411 1728.306030,722.937195 1708.448853,727.951294 
	C1693.547607,731.714050 1678.192505,732.176453 1663.135376,730.737305 
	C1639.843872,728.511292 1618.632202,720.243225 1600.327515,704.962585 
	C1579.666626,687.715027 1564.500122,666.686279 1556.142334,641.198975 
	C1551.246582,626.269775 1546.988647,610.976196 1544.262573,595.525635 
	C1539.668579,569.488647 1540.036377,542.982727 1541.264526,516.707520 
	C1542.468628,490.946106 1546.580811,465.459778 1555.895264,441.086426 
	C1562.778809,423.074036 1572.078491,406.707947 1585.059204,392.257843 
	C1601.036011,374.472626 1620.218750,362.172272 1643.222534,356.035156 
	C1650.737305,354.030304 1658.559692,353.022797 1666.305298,352.088806 
	C1672.683838,351.319641 1679.175903,350.839813 1685.584717,351.086548 
	C1711.509399,352.084534 1735.427734,359.067291 1755.593018,376.159637 
	C1761.562622,381.219604 1767.099121,386.790527 1772.902832,392.191345 
	C1772.596069,386.724274 1772.356567,381.048340 1771.940796,375.385284 
	C1771.363159,367.515533 1770.124878,359.657867 1770.088501,351.790802 
	C1769.898560,310.795441 1769.997803,269.798737 1770.002075,228.802505 
	C1770.002686,222.472122 1772.533081,220.007339 1779.002563,220.001175 
	C1784.835083,219.995621 1790.667480,220.000000 1797.000000,220.000000 
M1710.430054,633.016113 
	C1719.323975,635.474731 1728.114624,633.580750 1736.754150,631.860962 
	C1751.463013,628.933105 1762.339722,620.580994 1768.593262,606.801025 
	C1774.390381,594.026611 1777.430908,580.334595 1777.781006,566.509888 
	C1778.460327,539.685364 1779.689941,512.651978 1770.946533,486.599579 
	C1767.913696,477.562561 1764.235474,468.496368 1756.678833,462.387604 
	C1741.376587,450.017487 1723.526978,447.150543 1704.795776,451.797058 
	C1686.570679,456.318085 1676.786255,470.195068 1670.048950,486.517883 
	C1662.730103,504.249329 1661.989990,523.188538 1661.179321,541.958008 
	C1660.798584,550.775024 1662.157471,559.691956 1663.034058,568.533264 
	C1664.764526,585.986633 1669.050171,602.476624 1680.676758,616.392395 
	C1688.339355,625.563782 1697.647827,631.409241 1710.430054,633.016113 
M1703.940063,665.133545 
	C1697.095093,677.553833 1699.360962,689.421387 1706.630859,700.643127 
	C1710.820801,707.110901 1717.319458,706.573303 1720.179565,699.364197 
	C1723.637573,690.647827 1723.153809,681.428101 1719.994629,672.693054 
	C1716.957275,664.295288 1713.494507,662.824890 1703.940063,665.133545 
M1836.210327,356.227997 
	C1838.362427,356.287140 1840.763794,357.001953 1842.624146,356.294220 
	C1851.666138,352.854523 1859.738281,339.203308 1860.106201,328.342499 
	C1860.243408,324.291260 1858.902832,320.856140 1855.624634,319.841675 
	C1852.977539,319.022583 1848.925293,319.839813 1846.582031,321.481171 
	C1839.102417,326.719940 1835.077881,334.470459 1832.722656,343.229034 
	C1831.419189,348.076080 1831.378906,352.341736 1836.210327,356.227997 
M1608.001221,580.575317 
	C1607.475464,577.908447 1607.826660,574.772278 1604.017700,574.031189 
	C1592.960693,571.879761 1576.993286,578.892273 1571.056885,588.568726 
	C1567.836304,593.818054 1571.674438,601.152344 1577.824219,600.987610 
	C1589.186890,600.683289 1598.665039,596.055298 1605.923096,587.304016 
	C1607.171997,585.798157 1607.343750,583.398987 1608.001221,580.575317 
M1802.372437,437.063782 
	C1805.557007,436.278595 1808.851929,435.788696 1811.903320,434.647583 
	C1818.545166,432.163879 1824.488892,428.510254 1828.581787,422.509277 
	C1831.650757,418.009338 1829.967163,410.395905 1825.815552,410.092621 
	C1813.354248,409.182251 1802.652832,412.851654 1794.293457,422.607666 
	C1791.332275,426.063629 1791.642944,429.536926 1793.192627,433.185730 
	C1794.746094,436.843018 1797.965454,437.400452 1802.372437,437.063782 
z"/>
<path fill="#6FAB49" opacity="1.000000" stroke="none" 
	d="
M2674.312256,641.272461 
	C2660.687256,668.799072 2641.246582,690.470337 2615.073486,705.996765 
	C2595.595459,717.551392 2574.577148,724.387878 2552.268311,728.226074 
	C2533.987793,731.371155 2515.634277,731.818542 2497.365479,730.759277 
	C2470.899414,729.224792 2445.427490,722.750000 2421.938721,709.947266 
	C2403.141846,699.701904 2386.930908,686.459778 2373.590332,669.443115 
	C2360.587646,652.857422 2350.938232,634.589294 2344.612549,614.750061 
	C2340.576416,602.091370 2337.610840,588.833313 2336.285156,575.631104 
	C2334.469238,557.549194 2333.435303,539.209351 2334.258057,521.079590 
	C2335.927979,484.287170 2345.044922,449.350586 2366.251709,418.570953 
	C2379.786865,398.926361 2397.282471,383.580902 2418.680908,372.594482 
	C2437.464355,362.950531 2457.123779,356.326080 2478.062500,354.108917 
	C2493.295166,352.496002 2508.678955,350.828644 2523.936035,351.262573 
	C2549.389404,351.986420 2574.111572,356.948029 2597.584473,367.708740 
	C2616.522949,376.390747 2633.271729,387.859375 2647.436523,403.013397 
	C2661.880615,418.466034 2672.728027,436.226135 2680.521240,455.927460 
	C2686.867188,471.969208 2690.877686,488.625854 2692.777344,505.632721 
	C2694.407227,520.225525 2695.295898,535.043457 2694.784668,549.701599 
	C2693.893066,575.257141 2690.547363,600.559448 2681.093750,624.639832 
	C2678.950928,630.097534 2676.724365,635.522156 2674.312256,641.272461 
M2458.000977,579.402893 
	C2461.009033,589.514099 2463.096436,600.024841 2467.265137,609.632385 
	C2472.148682,620.887024 2480.301758,629.545227 2492.383301,634.318115 
	C2501.457275,637.902832 2510.632568,638.230103 2519.999512,637.964905 
	C2537.596680,637.466736 2550.456787,629.064636 2559.015625,613.876038 
	C2568.915283,596.306702 2571.609375,576.816162 2572.780762,557.239441 
	C2573.590088,543.719055 2572.372070,530.074219 2571.994141,516.486816 
	C2571.617920,502.963867 2568.608887,489.936005 2563.923584,477.326233 
	C2560.121094,467.092346 2553.927490,458.249634 2544.908447,452.094208 
	C2529.999512,441.918945 2513.493652,441.285431 2496.536621,445.841064 
	C2476.551025,451.210419 2467.148926,466.594696 2462.278564,484.764160 
	C2458.581787,498.556274 2456.354248,512.931458 2455.263184,527.184265 
	C2453.953369,544.290344 2454.955078,561.517944 2458.000977,579.402893 
z"/>
<path fill="#F04E36" opacity="1.000000" stroke="none" 
	d="
M1165.251953,668.750122 
	C1149.482056,649.230286 1139.938477,627.191223 1133.934937,603.329102 
	C1127.075439,576.065430 1126.886963,548.288269 1128.281982,520.644409 
	C1129.828003,490.006439 1136.386841,460.269684 1151.478149,432.960907 
	C1162.364746,413.260773 1176.387085,396.261932 1194.683594,383.149475 
	C1215.234009,368.421844 1238.205200,359.322388 1263.154541,354.904663 
	C1280.116089,351.901306 1297.170166,350.281830 1314.307251,351.114594 
	C1343.187866,352.518005 1371.399780,357.312134 1397.465454,370.834198 
	C1416.738037,380.832245 1432.580688,394.624542 1445.232910,412.398651 
	C1459.054565,431.815735 1466.535645,453.536133 1471.050049,476.620972 
	C1474.572388,494.633179 1473.970947,512.812439 1473.996826,530.982971 
	C1474.014160,543.146606 1474.008911,555.310242 1473.996094,567.473877 
	C1473.989868,573.375732 1472.328979,574.997009 1466.293701,574.997314 
	C1395.977783,575.001465 1325.661865,575.000000 1255.345947,575.000000 
	C1253.381104,575.000000 1251.416260,575.000000 1247.977295,575.000000 
	C1250.086182,583.015564 1251.440552,590.504517 1254.034302,597.536316 
	C1259.509644,612.380127 1269.347412,624.074646 1283.302612,631.417786 
	C1290.815674,635.371033 1299.275146,638.056152 1307.625000,639.741333 
	C1316.266846,641.485229 1325.308960,642.064026 1334.147705,641.868835 
	C1367.416138,641.133850 1399.667114,635.056580 1430.405640,621.908508 
	C1434.589844,620.118713 1438.802734,618.393066 1442.953125,616.528137 
	C1447.311279,614.569946 1451.966919,617.337830 1451.975830,622.173889 
	C1452.025513,649.162781 1451.999756,676.151794 1451.999756,703.341492 
	C1434.706055,713.056152 1416.382080,720.222595 1396.965088,723.815613 
	C1381.234863,726.726501 1365.249268,728.654602 1349.289429,729.817017 
	C1333.255127,730.984802 1317.071533,731.547546 1301.027100,730.797424 
	C1275.832153,729.619446 1251.218140,724.806274 1227.767578,714.983154 
	C1212.781616,708.705688 1198.532349,701.062378 1186.239014,690.453125 
	C1178.742676,683.983765 1172.380615,676.200012 1165.251953,668.750122 
M1310.403564,437.000000 
	C1270.607300,435.561218 1253.904175,466.886658 1252.433716,493.770874 
	C1289.145874,493.770874 1325.848145,493.770874 1364.099854,493.770874 
	C1362.316284,486.366455 1361.172485,479.337860 1358.920166,472.684479 
	C1351.342163,450.298157 1333.122314,437.642792 1310.403564,437.000000 
M1210.767822,633.864258 
	C1200.552490,640.624451 1194.989136,650.279419 1194.107178,662.329956 
	C1193.583496,669.484436 1200.013428,673.592102 1205.927124,669.622498 
	C1215.413818,663.254395 1222.275269,654.797668 1222.025757,642.342773 
	C1221.879272,635.038208 1218.849609,632.370056 1210.767822,633.864258 
M1363.000122,395.824280 
	C1362.895508,404.643311 1364.423950,413.017365 1369.962036,420.201965 
	C1374.157837,425.645111 1380.517700,425.447052 1382.703125,419.038300 
	C1384.609253,413.448364 1385.104248,407.021454 1384.639893,401.088257 
	C1384.247681,396.079498 1381.968384,391.071838 1379.813843,386.390747 
	C1377.847046,382.117645 1373.212891,382.327545 1369.699829,383.325745 
	C1367.598633,383.922791 1365.978882,386.995819 1364.645142,389.252808 
	C1363.674438,390.895325 1363.525513,393.023468 1363.000122,395.824280 
M1212.915771,591.225891 
	C1216.476440,583.092896 1216.629517,574.751343 1215.311890,566.051086 
	C1214.560547,561.089783 1212.432373,558.546936 1207.680298,557.990417 
	C1203.107544,557.455017 1200.648193,560.433716 1198.748291,563.869690 
	C1194.810547,570.990295 1193.799927,578.788025 1194.039307,586.783264 
	C1194.192383,591.892273 1198.199219,597.858337 1202.398315,598.606506 
	C1207.628052,599.538208 1210.592773,596.240173 1212.915771,591.225891 
z"/>
<path fill="#F04E36" opacity="1.000000" stroke="none" 
	d="
M908.708069,641.046936 
	C914.106995,641.384949 919.055847,642.093628 923.968140,641.895508 
	C931.180054,641.604675 938.427429,641.052429 945.549805,639.920410 
	C959.377991,637.722656 973.424927,636.085754 986.833862,632.285156 
	C1001.616394,628.095276 1015.807617,621.797546 1030.204468,616.282349 
	C1034.266968,614.726013 1038.963623,617.502380 1038.973022,622.018066 
	C1039.027710,648.349426 1039.031006,674.681091 1038.901489,701.011902 
	C1038.895386,702.263306 1037.766602,704.070679 1036.650513,704.671570 
	C1017.287048,715.097595 996.646301,722.116699 975.049072,725.830505 
	C962.150024,728.048645 949.002502,729.166016 935.917786,729.873413 
	C919.848816,730.742126 903.683594,731.581909 887.641357,730.788879 
	C862.622009,729.552185 838.164307,724.776306 814.860962,715.012512 
	C799.869019,708.731018 785.508972,701.220764 773.314819,690.505432 
	C760.682495,679.405090 749.427979,666.955994 740.621826,652.354797 
	C730.131409,634.960938 723.683838,616.116882 719.367249,596.494263 
	C717.546570,588.218079 716.546143,579.670959 716.117188,571.199097 
	C715.362244,556.289734 714.872620,541.336182 715.115417,526.414856 
	C715.425110,507.383026 718.337402,488.605652 723.407349,470.246948 
	C728.427795,452.067719 736.199646,435.116821 746.830261,419.459625 
	C764.621338,393.255920 788.457581,375.031616 818.041077,363.849670 
	C832.949463,358.214661 848.177856,354.357239 864.000671,353.060211 
	C876.334412,352.049255 888.754822,350.722626 901.074402,351.188049 
	C930.328186,352.293213 958.890198,357.379913 985.173706,371.110046 
	C1004.070740,380.981689 1019.696899,394.699646 1032.140137,412.222626 
	C1046.032227,431.785675 1053.575928,453.644470 1058.077881,476.924866 
	C1061.918579,496.786194 1060.809692,516.807739 1060.984741,536.800720 
	C1061.072266,546.799255 1061.002930,556.799194 1060.999023,566.798462 
	C1060.996460,573.550720 1059.583984,574.998291 1052.966797,574.998474 
	C982.805115,575.000977 912.643494,575.000000 842.481812,575.000000 
	C840.508545,575.000000 838.535278,575.000000 836.563599,575.000000 
	C836.779907,606.533508 861.566589,640.383789 908.708069,641.046936 
M881.091553,438.416779 
	C852.856873,444.781403 840.345337,471.488159 839.576172,493.707581 
	C876.286011,493.707581 912.993958,493.707581 949.715637,493.707581 
	C949.835083,492.947144 949.994385,492.466003 949.972778,491.993134 
	C949.317688,477.698578 944.616272,464.796417 935.322449,453.996857 
	C927.672913,445.107910 917.921509,438.982758 905.900024,438.104187 
	C897.934448,437.522034 889.888611,438.038544 881.091553,438.416779 
M837.917908,688.229492 
	C841.492126,677.961853 841.259827,667.817139 836.775452,657.873901 
	C836.178894,656.551147 835.103638,655.390869 834.073364,654.326416 
	C829.597290,649.702148 821.994568,651.373413 819.866699,657.404236 
	C815.920715,668.587646 818.202209,678.939941 824.503967,688.503174 
	C828.489197,694.551025 832.750366,694.494202 837.917908,688.229492 
M816.003235,411.885437 
	C816.018311,405.184265 809.279541,402.532501 804.963562,404.696075 
	C796.330933,409.023590 787.154846,425.058258 788.014771,434.698090 
	C788.513916,440.293823 794.252747,444.039337 798.998413,441.095123 
	C809.361938,434.665527 816.375549,425.836548 816.003235,411.885437 
M1027.855225,506.436646 
	C1030.244751,503.905579 1033.014526,501.630646 1034.932983,498.782227 
	C1037.686279,494.694397 1035.706543,487.658020 1031.993530,487.062012 
	C1021.008362,485.298645 1003.973450,491.658813 999.510620,501.310394 
	C998.323181,503.878387 998.515320,507.771667 999.586121,510.452484 
	C1000.288574,512.211121 1003.642639,513.722656 1005.918457,513.894043 
	C1013.887390,514.494263 1020.664062,510.793488 1027.855225,506.436646 
z"/>
<path fill="#F04E36" opacity="1.000000" stroke="none" 
	d="
M444.423126,360.258392 
	C453.056702,358.290985 461.292023,356.348480 469.598480,354.783905 
	C475.852081,353.606049 482.171631,352.445862 488.506500,352.102936 
	C500.917450,351.431091 513.398804,350.549988 525.780396,351.169342 
	C549.299622,352.345734 572.690918,355.127075 595.181030,362.667725 
	C611.188904,368.034912 627.056824,373.821838 642.956482,379.507111 
	C644.750061,380.148407 646.344482,381.346588 648.142822,382.348694 
	C637.951355,406.622375 627.931885,430.601654 617.806396,454.536102 
	C614.550171,462.232941 611.678101,462.854523 603.669495,459.357574 
	C585.465576,451.408997 566.608704,445.392944 547.228699,440.975891 
	C533.507019,437.848450 519.600342,435.889191 505.622345,437.235779 
	C498.511078,437.920807 490.979645,439.899902 484.817200,443.381226 
	C476.675354,447.980743 476.599976,458.546173 486.133606,464.692657 
	C497.382843,471.945312 509.892883,477.358978 522.166260,482.881104 
	C544.565247,492.958984 567.419312,502.046783 589.640564,512.490234 
	C603.319519,518.918945 615.603271,527.935120 625.757751,539.340637 
	C637.479919,552.507080 645.702576,567.522400 647.982056,585.288696 
	C649.148926,594.383789 650.986694,603.545349 650.743958,612.629395 
	C650.452698,623.528870 649.134277,634.577454 646.686829,645.198853 
	C643.489380,659.074768 637.308228,671.854248 628.409668,683.220642 
	C619.341064,694.804382 608.206360,703.904785 595.374084,710.830994 
	C578.303345,720.045044 559.910767,725.082581 540.751465,728.157227 
	C517.178162,731.940247 493.478729,731.660095 469.880646,730.752441 
	C437.826508,729.519531 406.210419,724.728027 375.955292,713.113525 
	C366.135895,709.343933 366.000000,709.697998 366.000000,699.222107 
	C366.000000,672.895325 365.998474,646.568542 366.001068,620.241760 
	C366.001709,613.839600 370.223267,610.868103 375.962860,613.505493 
	C393.008667,621.338257 410.688110,627.409485 428.978363,631.351562 
	C443.620819,634.507507 458.454102,636.987183 473.318878,638.829468 
	C483.302338,640.066711 493.557007,640.526306 503.562714,639.730103 
	C511.673492,639.084656 519.878967,636.800293 527.531311,633.896179 
	C538.590393,629.699097 539.652832,616.154602 531.567322,608.019165 
	C523.974426,600.379395 514.257324,596.297424 504.715179,592.110596 
	C487.301849,584.470215 469.413605,577.880127 452.185883,569.858826 
	C438.191742,563.343079 424.599884,555.834778 411.327240,547.931030 
	C395.220581,538.339600 382.816956,524.889954 374.538116,507.969757 
	C369.481964,497.636108 366.667084,486.597015 366.013672,475.073578 
	C365.602112,467.815186 364.850586,460.532990 365.086426,453.288666 
	C365.944946,426.918915 375.152069,404.028198 395.231750,386.408051 
	C409.384583,373.988800 426.231079,366.189453 444.423126,360.258392 
M424.655029,524.111389 
	C431.429810,527.017334 434.187805,526.429932 436.516388,519.722778 
	C439.393646,511.435181 438.903503,502.743561 436.299561,494.375916 
	C435.493591,491.785919 433.790131,489.276733 431.928741,487.253998 
	C427.784851,482.750793 419.948334,484.427521 417.980408,490.080688 
	C413.694244,502.393280 416.443237,513.465515 424.655029,524.111389 
M581.610291,678.689392 
	C584.070862,682.018250 587.245789,682.120667 590.327087,680.033752 
	C600.369385,673.232300 607.727417,664.610107 606.826172,651.594727 
	C606.638733,648.887573 604.881592,645.303711 602.719910,644.013367 
	C600.805603,642.870728 596.759155,643.474976 594.628906,644.835022 
	C585.413940,650.718384 580.946167,659.913879 579.172180,670.354187 
	C578.761353,672.772034 580.394287,675.537231 581.610291,678.689392 
M512.987183,373.747375 
	C511.718781,371.857544 510.712524,368.598297 509.140015,368.297272 
	C497.894470,366.144653 481.512817,372.563202 475.832092,382.814484 
	C473.040802,387.851593 476.903534,395.112091 482.655701,394.992920 
	C494.038391,394.757172 503.536163,390.139709 510.801392,381.420959 
	C512.223022,379.714905 512.302734,376.890656 512.987183,373.747375 
M391.010345,686.311951 
	C392.077637,689.833496 394.510223,691.510315 398.096649,690.996826 
	C401.980652,690.440552 405.954926,689.943909 409.638947,688.686340 
	C416.524139,686.335938 422.590210,682.511292 426.706573,676.294739 
	C429.903046,671.467407 427.684448,664.510803 423.065216,663.977783 
	C413.985504,662.929993 405.942291,665.988220 398.510803,670.591187 
	C391.813904,674.739258 389.349030,680.257263 391.010345,686.311951 
z"/>
<path fill="#6FAB49" opacity="1.000000" stroke="none" 
	d="
M2118.931641,729.001221 
	C2102.291260,727.370605 2086.770264,723.044495 2071.650391,717.228333 
	C2050.661377,709.154419 2032.202271,697.253174 2017.015991,680.513184 
	C2000.343506,662.134827 1988.550903,640.956543 1982.150635,617.054993 
	C1978.658936,604.015930 1975.876587,590.668823 1974.258545,577.281189 
	C1972.792358,565.149963 1973.378540,552.774048 1972.991943,540.508179 
	C1972.177490,514.661865 1975.722656,489.329956 1983.286011,464.709198 
	C1989.132446,445.677185 1998.800537,428.466217 2011.475586,412.970856 
	C2026.853149,394.171295 2045.465332,379.703430 2067.624023,369.734039 
	C2083.475830,362.602142 2099.977539,357.869293 2117.105469,354.903656 
	C2134.578125,351.878326 2152.151855,350.333496 2169.806641,351.113159 
	C2193.390625,352.154694 2216.806152,354.959412 2239.277588,362.732147 
	C2252.933350,367.455719 2266.388916,372.759705 2280.273926,377.929413 
	C2270.196533,403.383850 2260.623779,427.550354 2251.064697,451.722260 
	C2249.686523,455.206451 2248.342285,458.704803 2247.037598,462.217072 
	C2245.267822,466.981781 2241.510010,469.003448 2236.741943,467.287689 
	C2225.099365,463.097870 2213.608154,458.471954 2201.890869,454.509399 
	C2186.653564,449.356537 2170.836670,446.716858 2154.818359,448.146667 
	C2130.566650,450.311371 2112.748291,463.308258 2102.998047,487.433563 
	C2097.915771,500.009216 2095.412109,513.088257 2094.979492,526.614624 
	C2094.730957,534.384949 2093.751953,542.177979 2094.120850,549.912231 
	C2094.885986,565.955566 2096.652100,581.978943 2103.449463,596.781433 
	C2112.448242,616.377502 2127.055420,628.965271 2149.096436,632.079102 
	C2164.850830,634.304810 2180.320557,632.633423 2195.706299,629.601013 
	C2215.527588,625.694397 2234.218506,618.534058 2252.002686,608.986694 
	C2253.729248,608.059814 2255.339111,606.914307 2257.070068,605.996948 
	C2262.056885,603.354065 2266.979736,606.162109 2266.985596,611.714905 
	C2267.016602,640.214111 2266.971680,668.713318 2267.050293,697.212341 
	C2267.057129,699.661133 2266.197510,700.751587 2264.090088,702.080872 
	C2243.374268,715.147644 2220.783447,723.323608 2196.867432,727.879883 
	C2176.254150,731.806946 2155.337646,731.208313 2134.489258,730.907227 
	C2129.447021,730.834351 2124.420410,729.666565 2118.931641,729.001221 
z"/>
<path fill="#6FAB49" opacity="1.000000" stroke="none" 
	d="
M2899.654785,517.729248 
	C2898.613525,528.930786 2897.156006,539.766235 2897.109375,550.607788 
	C2896.872070,605.761353 2897.001465,660.916504 2896.998047,716.071106 
	C2896.997803,722.520264 2894.531982,724.997070 2888.108643,724.997925 
	C2854.282715,725.002380 2820.456787,725.003540 2786.630859,724.996704 
	C2780.599609,724.995483 2778.002686,722.379761 2778.002441,716.310608 
	C2777.998779,599.502808 2777.999512,482.695007 2778.002441,365.887207 
	C2778.002441,359.502502 2779.496338,358.003876 2785.861084,358.002441 
	C2811.688721,357.996552 2837.517334,358.115204 2863.343018,357.887238 
	C2867.672852,357.848999 2869.598145,358.845917 2870.797852,363.259338 
	C2875.235596,379.582520 2880.189453,395.765381 2884.918945,412.009857 
	C2885.145996,412.790039 2885.083496,413.654694 2885.207764,415.073975 
	C2900.356445,389.317841 2920.963623,370.313568 2948.259766,359.061249 
	C2975.683838,347.756256 3003.615723,349.695709 3031.910645,355.926208 
	C3031.162354,364.831390 3030.527832,373.154785 3029.739502,381.463623 
	C3029.291016,386.189575 3028.495361,390.882111 3028.020508,395.606232 
	C3026.640137,409.333862 3025.312500,423.067047 3024.025146,436.803741 
	C3023.288574,444.660889 3022.598145,452.523865 3022.024170,460.394257 
	C3021.610840,466.066498 3018.294922,467.971558 3012.455566,467.346558 
	C2998.879150,465.893524 2985.209717,463.970947 2971.624268,464.280212 
	C2954.683594,464.665802 2938.246826,468.677338 2924.148438,478.999603 
	C2911.072021,488.573669 2903.006592,501.435089 2899.654785,517.729248 
z"/>
<path fill="#FFFFFF" opacity="1.000000" stroke="none" 
	d="
M3214.712891,626.314941 
	C3199.894287,616.637085 3192.684814,602.309082 3189.188477,586.131653 
	C3186.881592,575.458923 3185.886230,564.436707 3185.135498,553.513794 
	C3184.483643,544.025208 3184.360596,534.404175 3185.133789,524.933899 
	C3186.711670,505.609070 3189.940186,486.637878 3201.895264,470.409454 
	C3211.320312,457.615631 3223.496582,450.209625 3239.764893,449.932037 
	C3249.100342,449.772827 3258.095459,451.166382 3266.778564,454.395386 
	C3279.323486,459.060638 3287.103516,468.660706 3291.735352,480.668335 
	C3296.504150,493.030457 3299.705566,505.882324 3300.000977,519.276367 
	C3300.337646,534.539673 3301.581055,549.852295 3300.761963,565.053650 
	C3299.803711,582.842957 3296.963379,600.472168 3286.116943,615.642822 
	C3279.843750,624.416809 3271.127197,629.035950 3260.980713,631.520813 
	C3245.930908,635.206543 3231.153809,635.386230 3216.997803,627.982483 
	C3216.279541,627.606628 3215.668701,627.025208 3214.712891,626.314941 
z"/>
<path fill="#FFFFFF" opacity="1.000000" stroke="none" 
	d="
M1709.984619,633.009155 
	C1697.647827,631.409241 1688.339355,625.563782 1680.676758,616.392395 
	C1669.050171,602.476624 1664.764526,585.986633 1663.034058,568.533264 
	C1662.157471,559.691956 1660.798584,550.775024 1661.179321,541.958008 
	C1661.989990,523.188538 1662.730103,504.249329 1670.048950,486.517883 
	C1676.786255,470.195068 1686.570679,456.318085 1704.795776,451.797058 
	C1723.526978,447.150543 1741.376587,450.017487 1756.678833,462.387604 
	C1764.235474,468.496368 1767.913696,477.562561 1770.946533,486.599579 
	C1779.689941,512.651978 1778.460327,539.685364 1777.781006,566.509888 
	C1777.430908,580.334595 1774.390381,594.026611 1768.593262,606.801025 
	C1762.339722,620.580994 1751.463013,628.933105 1736.754150,631.860962 
	C1728.114624,633.580750 1719.323975,635.474731 1709.984619,633.009155 
z"/>
<path fill="#383C2E" opacity="1.000000" stroke="none" 
	d="
M1704.250977,664.874329 
	C1713.494507,662.824890 1716.957275,664.295288 1719.994629,672.693054 
	C1723.153809,681.428101 1723.637573,690.647827 1720.179565,699.364197 
	C1717.319458,706.573303 1710.820801,707.110901 1706.630859,700.643127 
	C1699.360962,689.421387 1697.095093,677.553833 1704.250977,664.874329 
z"/>
<path fill="#373C2E" opacity="1.000000" stroke="none" 
	d="
M1835.938232,355.982971 
	C1831.378906,352.341736 1831.419189,348.076080 1832.722656,343.229034 
	C1835.077881,334.470459 1839.102417,326.719940 1846.582031,321.481171 
	C1848.925293,319.839813 1852.977539,319.022583 1855.624634,319.841675 
	C1858.902832,320.856140 1860.243408,324.291260 1860.106201,328.342499 
	C1859.738281,339.203308 1851.666138,352.854523 1842.624146,356.294220 
	C1840.763794,357.001953 1838.362427,356.287140 1835.938232,355.982971 
z"/>
<path fill="#383C2E" opacity="1.000000" stroke="none" 
	d="
M1608.007080,580.993896 
	C1607.343750,583.398987 1607.171997,585.798157 1605.923096,587.304016 
	C1598.665039,596.055298 1589.186890,600.683289 1577.824219,600.987610 
	C1571.674438,601.152344 1567.836304,593.818054 1571.056885,588.568726 
	C1576.993286,578.892273 1592.960693,571.879761 1604.017700,574.031189 
	C1607.826660,574.772278 1607.475464,577.908447 1608.007080,580.993896 
z"/>
<path fill="#383C2E" opacity="1.000000" stroke="none" 
	d="
M1801.935303,437.063660 
	C1797.965454,437.400452 1794.746094,436.843018 1793.192627,433.185730 
	C1791.642944,429.536926 1791.332275,426.063629 1794.293457,422.607666 
	C1802.652832,412.851654 1813.354248,409.182251 1825.815552,410.092621 
	C1829.967163,410.395905 1831.650757,418.009338 1828.581787,422.509277 
	C1824.488892,428.510254 1818.545166,432.163879 1811.903320,434.647583 
	C1808.851929,435.788696 1805.557007,436.278595 1801.935303,437.063660 
z"/>
<path fill="#FFFFFF" opacity="1.000000" stroke="none" 
	d="
M2457.999512,578.959351 
	C2454.955078,561.517944 2453.953369,544.290344 2455.263184,527.184265 
	C2456.354248,512.931458 2458.581787,498.556274 2462.278564,484.764160 
	C2467.148926,466.594696 2476.551025,451.210419 2496.536621,445.841064 
	C2513.493652,441.285431 2529.999512,441.918945 2544.908447,452.094208 
	C2553.927490,458.249634 2560.121094,467.092346 2563.923584,477.326233 
	C2568.608887,489.936005 2571.617920,502.963867 2571.994141,516.486816 
	C2572.372070,530.074219 2573.590088,543.719055 2572.780762,557.239441 
	C2571.609375,576.816162 2568.915283,596.306702 2559.015625,613.876038 
	C2550.456787,629.064636 2537.596680,637.466736 2519.999512,637.964905 
	C2510.632568,638.230103 2501.457275,637.902832 2492.383301,634.318115 
	C2480.301758,629.545227 2472.148682,620.887024 2467.265137,609.632385 
	C2463.096436,600.024841 2461.009033,589.514099 2457.999512,578.959351 
z"/>
<path fill="#FFFFFF" opacity="1.000000" stroke="none" 
	d="
M1310.881592,437.000000 
	C1333.122314,437.642792 1351.342163,450.298157 1358.920166,472.684479 
	C1361.172485,479.337860 1362.316284,486.366455 1364.099854,493.770874 
	C1325.848145,493.770874 1289.145874,493.770874 1252.433716,493.770874 
	C1253.904175,466.886658 1270.607300,435.561218 1310.881592,437.000000 
z"/>
<path fill="#373C2E" opacity="1.000000" stroke="none" 
	d="
M1211.098999,633.664062 
	C1218.849609,632.370056 1221.879272,635.038208 1222.025757,642.342773 
	C1222.275269,654.797668 1215.413818,663.254395 1205.927124,669.622498 
	C1200.013428,673.592102 1193.583496,669.484436 1194.107178,662.329956 
	C1194.989136,650.279419 1200.552490,640.624451 1211.098999,633.664062 
z"/>
<path fill="#383C2E" opacity="1.000000" stroke="none" 
	d="
M1363.005127,395.379700 
	C1363.525513,393.023468 1363.674438,390.895325 1364.645142,389.252808 
	C1365.978882,386.995819 1367.598633,383.922791 1369.699829,383.325745 
	C1373.212891,382.327545 1377.847046,382.117645 1379.813843,386.390747 
	C1381.968384,391.071838 1384.247681,396.079498 1384.639893,401.088257 
	C1385.104248,407.021454 1384.609253,413.448364 1382.703125,419.038300 
	C1380.517700,425.447052 1374.157837,425.645111 1369.962036,420.201965 
	C1364.423950,413.017365 1362.895508,404.643311 1363.005127,395.379700 
z"/>
<path fill="#383C2E" opacity="1.000000" stroke="none" 
	d="
M1212.813110,591.595337 
	C1210.592773,596.240173 1207.628052,599.538208 1202.398315,598.606506 
	C1198.199219,597.858337 1194.192383,591.892273 1194.039307,586.783264 
	C1193.799927,578.788025 1194.810547,570.990295 1198.748291,563.869690 
	C1200.648193,560.433716 1203.107544,557.455017 1207.680298,557.990417 
	C1212.432373,558.546936 1214.560547,561.089783 1215.311890,566.051086 
	C1216.629517,574.751343 1216.476440,583.092896 1212.813110,591.595337 
z"/>
<path fill="#FFFFFF" opacity="1.000000" stroke="none" 
	d="
M881.485107,438.239990 
	C889.888611,438.038544 897.934448,437.522034 905.900024,438.104187 
	C917.921509,438.982758 927.672913,445.107910 935.322449,453.996857 
	C944.616272,464.796417 949.317688,477.698578 949.972778,491.993134 
	C949.994385,492.466003 949.835083,492.947144 949.715637,493.707581 
	C912.993958,493.707581 876.286011,493.707581 839.576172,493.707581 
	C840.345337,471.488159 852.856873,444.781403 881.485107,438.239990 
z"/>
<path fill="#383C2E" opacity="1.000000" stroke="none" 
	d="
M837.736450,688.571594 
	C832.750366,694.494202 828.489197,694.551025 824.503967,688.503174 
	C818.202209,678.939941 815.920715,668.587646 819.866699,657.404236 
	C821.994568,651.373413 829.597290,649.702148 834.073364,654.326416 
	C835.103638,655.390869 836.178894,656.551147 836.775452,657.873901 
	C841.259827,667.817139 841.492126,677.961853 837.736450,688.571594 
z"/>
<path fill="#373C2E" opacity="1.000000" stroke="none" 
	d="
M815.999512,412.329468 
	C816.375549,425.836548 809.361938,434.665527 798.998413,441.095123 
	C794.252747,444.039337 788.513916,440.293823 788.014771,434.698090 
	C787.154846,425.058258 796.330933,409.023590 804.963562,404.696075 
	C809.279541,402.532501 816.018311,405.184265 815.999512,412.329468 
z"/>
<path fill="#383C2E" opacity="1.000000" stroke="none" 
	d="
M1027.555420,506.636688 
	C1020.664062,510.793488 1013.887390,514.494263 1005.918457,513.894043 
	C1003.642639,513.722656 1000.288574,512.211121 999.586121,510.452484 
	C998.515320,507.771667 998.323181,503.878387 999.510620,501.310394 
	C1003.973450,491.658813 1021.008362,485.298645 1031.993530,487.062012 
	C1035.706543,487.658020 1037.686279,494.694397 1034.932983,498.782227 
	C1033.014526,501.630646 1030.244751,503.905579 1027.555420,506.636688 
z"/>
<path fill="#383C2E" opacity="1.000000" stroke="none" 
	d="
M424.366821,523.871094 
	C416.443237,513.465515 413.694244,502.393280 417.980408,490.080688 
	C419.948334,484.427521 427.784851,482.750793 431.928741,487.253998 
	C433.790131,489.276733 435.493591,491.785919 436.299561,494.375916 
	C438.903503,502.743561 439.393646,511.435181 436.516388,519.722778 
	C434.187805,526.429932 431.429810,527.017334 424.366821,523.871094 
z"/>
<path fill="#373C2E" opacity="1.000000" stroke="none" 
	d="
M581.348572,678.416016 
	C580.394287,675.537231 578.761353,672.772034 579.172180,670.354187 
	C580.946167,659.913879 585.413940,650.718384 594.628906,644.835022 
	C596.759155,643.474976 600.805603,642.870728 602.719910,644.013367 
	C604.881592,645.303711 606.638733,648.887573 606.826172,651.594727 
	C607.727417,664.610107 600.369385,673.232300 590.327087,680.033752 
	C587.245789,682.120667 584.070862,682.018250 581.348572,678.416016 
z"/>
<path fill="#383C2E" opacity="1.000000" stroke="none" 
	d="
M512.994263,374.164734 
	C512.302734,376.890656 512.223022,379.714905 510.801392,381.420959 
	C503.536163,390.139709 494.038391,394.757172 482.655701,394.992920 
	C476.903534,395.112091 473.040802,387.851593 475.832092,382.814484 
	C481.512817,372.563202 497.894470,366.144653 509.140015,368.297272 
	C510.712524,368.598297 511.718781,371.857544 512.994263,374.164734 
z"/>
<path fill="#383C2E" opacity="1.000000" stroke="none" 
	d="
M390.916718,685.920532 
	C389.349030,680.257263 391.813904,674.739258 398.510803,670.591187 
	C405.942291,665.988220 413.985504,662.929993 423.065216,663.977783 
	C427.684448,664.510803 429.903046,671.467407 426.706573,676.294739 
	C422.590210,682.511292 416.524139,686.335938 409.638947,688.686340 
	C405.954926,689.943909 401.980652,690.440552 398.096649,690.996826 
	C394.510223,691.510315 392.077637,689.833496 390.916718,685.920532 
z"/>
</svg>